<?xml version="1.0" encoding="UTF-8" standalone="no"?>
<!-- Created with Inkscape (http://www.inkscape.org/) -->

<svg
   version="1.1"
   id="svg1"
   width="304.68301"
   height="304.68304"
   viewBox="0 0 304.68296 304.68304"
   sodipodi:docname="emblem-purple.svg"
   inkscape:version="1.4 (86a8ad7, 2024-10-11)"
   inkscape:export-filename="emblem-purple.png"
   inkscape:export-xdpi="96"
   inkscape:export-ydpi="96"
   xmlns:inkscape="http://www.inkscape.org/namespaces/inkscape"
   xmlns:sodipodi="http://sodipodi.sourceforge.net/DTD/sodipodi-0.dtd"
   xmlns="http://www.w3.org/2000/svg"
   xmlns:svg="http://www.w3.org/2000/svg">
  <defs
     id="defs1">
    <rect
       x="908.60931"
       y="221.06372"
       width="1350.7368"
       height="339.08926"
       id="rect4" />
  </defs>
  <sodipodi:namedview
     id="namedview1"
     pagecolor="#ffffff"
     bordercolor="#000000"
     borderopacity="0.25"
     inkscape:showpageshadow="2"
     inkscape:pageopacity="0.0"
     inkscape:pagecheckerboard="0"
     inkscape:deskcolor="#d1d1d1"
     inkscape:zoom="0.75488282"
     inkscape:cx="154.99094"
     inkscape:cy="170.2251"
     inkscape:window-width="1920"
     inkscape:window-height="991"
     inkscape:window-x="2391"
     inkscape:window-y="-9"
     inkscape:window-maximized="1"
     inkscape:current-layer="svg1" />
  <rect
     style="font-variation-settings:'wght' 600;fill:#33203c;fill-opacity:1;stroke-width:0.439773"
     id="rect5"
     width="304.68301"
     height="304.68301"
     x="0"
     y="1.5258789e-05"
     ry="6.0936604" />
  <g
     inkscape:groupmode="layer"
     inkscape:label="Image"
     id="g1"
     transform="translate(-691.06805,-276.37589)" />
  <path
     style="fill:#ffffff;stroke-width:0.346146"
     d="m 48.080125,272.17484 c -7.65173,-0.19084 -8.17899,-0.33037 -9.50876,-2.51711 -2.068,-3.40054 -0.69688,-8.56631 3.76338,-14.17913 4.11196,-5.17447 12.02501,-9.97919 19.817761,-12.03316 6.65331,-1.75365 17.86114,-3.10109 26.02953,-3.12937 l 3.87526,-0.0133 -3.05357,-1.55046 c -3.16956,-1.60932 -6.93731,-4.02247 -10.35593,-6.63275 l -1.98671,-1.51694 -19.128141,-2.4116 c -26.53004,-3.34479 -31.85678,-4.08621 -32.26104,-4.49049 -0.23739,-0.23737 -0.22947,-0.54423 0.0246,-0.94732 0.33841,-0.53728 2.03133,-0.65322 17.12636,-1.17274 9.21295,-0.31709 18.970511,-0.58968 21.683411,-0.60577 2.7129,-0.0161 4.93256,-0.16907 4.93256,-0.34 0,-0.17091 -0.64771,-1.37686 -1.43934,-2.67993 -0.7916,-1.30301 -2.19833,-3.93029 -3.126,-5.83834 l -1.68672,-3.46921 -6.479481,-0.62029 c -16.59636,-1.58883 -45.10187,-5.01882 -45.67714,-5.49622 -0.61679,-0.51192 -0.54047,-1.23601 0.16979,-1.61058 0.33318,-0.17572 9.95166,-0.44421 21.37444,-0.59667 11.42278,-0.15247 20.88551,-0.30624 21.0283,-0.34175 0.14284,-0.0356 1.56705,-0.0839 3.16508,-0.10774 l 2.905451,-0.0433 -0.79682,-2.50954 c -0.950201,-2.99269 -1.898801,-7.43487 -1.898801,-8.89206 0,-0.80576 -0.17909,-1.08418 -0.77882,-1.21062 -0.42837,-0.0903 -5.84119,-0.72635 -12.02855,-1.41346 -21.7267,-2.41272 -23.95453,-2.71677 -24.33482,-3.32104 -0.1934,-0.30728 -0.2593,-0.79928 -0.14642,-1.09329 0.24344,-0.63441 1.50697,-0.7522 14.09696,-1.31441 14.46705,-0.646 22.77372,-1.17055 23.05783,-1.45602 0.2256,-0.22668 0.80557,-10.24558 0.61202,-10.57285 -0.0361,-0.061 -4.71459,-0.79674 -10.39662,-1.63477 -14.43365,-2.1288 -14.92373,-2.21883 -15.13941,-2.78083 -0.37727,-0.9832 0.18506,-1.45727 1.97555,-1.66552 0.98693,-0.11477 5.61067,-0.52833 10.27496,-0.919 10.81025,-0.90541 15.311241,-1.33483 15.450451,-1.47407 0.0609,-0.0609 0.50731,-1.47954 0.99215,-3.1527 1.69054,-5.83362 5.84165,-14.14351 11.16841,-22.35731 13.24837,-20.42895 32.807144,-33.27552 56.217774,-36.92494 5.43336,-0.84699 16.61085,-0.84361 22.0915,0.006 10.84566,1.68262 20.04197,4.87924 28.45558,9.8911 5.73843,3.41829 9.3886,6.30721 14.72597,11.65486 2.71291,2.71812 4.93257,4.87897 4.93257,4.80192 0,-0.077 1.50036,-7.58239 3.33413,-16.67852 3.24892,-16.11581 3.33827,-16.68614 3.49602,-22.320344 0.19458,-6.94746 -0.31637,-10.13831 -2.28879,-14.29445 -3.74349,-7.88787 -10.85587,-11.63242 -24.06154,-12.66801 -5.175,-0.40581 -9.15151,-0.24201 -19.33519,0.79639 -7.79799,0.79518 -8.36615,0.73926 -9.46069,-0.93124 -0.74719,-1.14034 -0.74812,-3.17487 -0.003,-4.61744 1.18752,-2.29648 12.80001,-10.16917 20.7997,-14.10119 8.0643,-3.96379 15.21237,-5.90688 23.01862,-6.25727 5.78676,-0.25974 7.90797,-0.007 23.71093,2.81228 6.85366,1.22321 15.65345,2.78838 19.55513,3.47814 3.90163,0.68975 7.81419,1.56397 8.69452,1.9427 2.14049,0.92081 3.52033,2.41898 5.0732,5.50826 0.90902,1.80839 1.73101,2.9005 2.77494,3.68675 3.33069,2.50854 11.91199,4.05908 14.57632,2.63377 0.8902,-0.47622 1.33717,-1.07009 1.84189,-2.44723 0.76163,-2.07804 2.30818,-3.47155 4.19215,-3.77728 0.66895,-0.10855 2.35792,0.0472 3.75321,0.34609 1.39534,0.29891 4.87344,1.03765 7.72912,1.64167 5.54616,1.17304 6.50473,1.52304 7.65847,2.79622 1.26568,1.39669 1.61653,2.44065 1.60582,4.7782 -0.0134,2.77149 -7.06615,38.882544 -8.01277,41.022604 -1.17725,2.66131 -3.87994,4.67214 -6.29133,4.68076 -1.27604,0.005 -16.05623,-3.48101 -16.78464,-3.95826 -0.44104,-0.289 -1.2319,-1.08919 -1.75743,-1.77822 -0.8097,-1.06157 -0.96066,-1.6041 -0.98908,-3.55511 -0.0658,-4.5176 -2.4161,-6.770724 -8.22124,-7.881334 -4.0966,-0.78376 -7.9982,-0.53447 -10.00044,0.6389 -3.08373,1.807184 -5.64068,5.261094 -6.35809,8.588434 -0.14212,0.65873 -0.47821,1.62809 -0.74703,2.15413 -0.50217,0.98268 -7.24579,36.84012 -8.29892,44.12737 -0.78501,5.43187 -0.78457,13.47571 0,17.50912 0.32736,1.68081 2.29022,8.14507 4.36195,14.365 6.92472,20.79008 9.00069,30.30121 9.00362,41.25049 0.29704,52.63114 -39.6979,59.23482 -84.10888,59.35803 -55.68605,0 -104.370195,-0.0718 -108.187025,-0.16721 z m 99.533395,-28.76225 c 16.45689,-3.73053 29.9345,-14.52193 37.82264,-30.28425 6.76926,-13.52641 8.90279,-30.53457 5.76519,-45.95882 -1.57136,-7.72473 -5.47595,-16.79166 -9.93061,-23.06016 -4.75795,-6.69522 -12.92335,-13.91212 -19.7015,-17.41288 -13.03522,-6.73244 -29.70427,-7.16244 -43.98487,-1.13465 -13.09149,5.52589 -23.166014,15.23202 -30.032044,28.93394 -2.61772,5.22395 -4.40385,10.19237 -5.39103,14.99598 -4.74609,23.09488 8.27415,45.67099 29.680084,51.46307 3.89662,1.05434 10.71909,1.29535 14.83039,0.52391 4.05553,-0.76098 9.38883,-2.86825 12.5844,-4.97229 5.13797,-3.38294 9.75764,-8.76964 12.37004,-14.42377 1.90594,-4.1252 2.58992,-7.30794 2.60398,-12.11723 0.0104,-3.51905 -0.12273,-4.57688 -0.87038,-6.9229 -2.73621,-8.5855 -9.82482,-14.59159 -18.0412,-15.28615 -7.83758,-0.66251 -14.80618,5.00062 -14.80618,12.03252 0,4.45022 2.68423,7.92658 6.12039,7.92658 2.32479,0 3.67348,-1.07503 3.67348,-2.92815 0,-2.78318 4.2361,-1.34223 5.84903,1.98961 1.06777,2.20566 1.01061,5.77548 -0.12894,8.05309 -1.50771,3.01352 -4.85587,5.9493 -8.53642,7.48496 -1.55757,0.64985 -2.49795,0.77449 -5.83735,0.77366 -4.62594,-0.001 -6.56426,-0.58474 -10.45833,-3.14893 -12.240524,-8.06013 -14.130734,-26.6216 -4.24154,-41.65074 2.36847,-3.59948 6.66009,-7.97505 9.95855,-10.15331 9.35275,-6.17644 21.98982,-8.13328 31.18848,-4.82953 6.0782,2.18304 11.09896,5.40035 15.78736,10.1166 7.06079,7.10272 11.21161,15.47585 13.56808,27.36985 0.66346,3.34884 0.7878,5.07946 0.78335,10.90355 -0.006,6.29271 -0.0896,7.2773 -0.93099,10.8161 -2.80814,11.80994 -10.40123,23.89078 -19.74798,31.41954 -4.82508,3.88662 -11.86158,7.82878 -17.64784,9.88715 -1.28506,0.45714 -2.33648,0.92532 -2.33648,1.04041 0,0.31098 6.27145,-0.5929 10.03819,-1.44676 z"
     id="path4"
     sodipodi:nodetypes="csssscsscsscssssscsssssscssssssssssssssssssssssssssscsssssssssssssssssssssssscsccccssssssssssssssssssssscssssssssssss" />
</svg>
