<?xml version="1.0" encoding="UTF-8" standalone="no"?>
<!-- Created with Inkscape (http://www.inkscape.org/) -->

<svg
   version="1.1"
   id="svg1"
   width="377.7291"
   height="318.92056"
   viewBox="0 0 377.72904 318.92056"
   sodipodi:docname="logo-2.svg"
   inkscape:version="1.4 (86a8ad7, 2024-10-11)"
   inkscape:export-filename="shellsmith-favicon-512.png"
   inkscape:export-xdpi="122.88"
   inkscape:export-ydpi="122.88"
   xmlns:inkscape="http://www.inkscape.org/namespaces/inkscape"
   xmlns:sodipodi="http://sodipodi.sourceforge.net/DTD/sodipodi-0.dtd"
   xmlns="http://www.w3.org/2000/svg"
   xmlns:svg="http://www.w3.org/2000/svg">
  <defs
     id="defs1">
    <rect
       x="908.60931"
       y="221.06372"
       width="1350.7368"
       height="339.08926"
       id="rect4" />
  </defs>
  <sodipodi:namedview
     id="namedview1"
     pagecolor="#ffffff"
     bordercolor="#000000"
     borderopacity="0.25"
     inkscape:showpageshadow="2"
     inkscape:pageopacity="0.0"
     inkscape:pagecheckerboard="0"
     inkscape:deskcolor="#d1d1d1"
     inkscape:zoom="0.75488282"
     inkscape:cx="231.82406"
     inkscape:cy="-155.6533"
     inkscape:window-width="3200"
     inkscape:window-height="1711"
     inkscape:window-x="2391"
     inkscape:window-y="-9"
     inkscape:window-maximized="1"
     inkscape:current-layer="g1" />
  <g
     inkscape:groupmode="layer"
     inkscape:label="Image"
     id="g1"
     transform="translate(-318.1311,-287.80303)">
    <path
       style="fill:#ffffff;stroke-width:0.45997"
       d="m 368.45027,606.50204 c -10.16788,-0.2536 -10.86852,-0.43906 -12.63557,-3.3448 -2.74805,-4.51875 -0.92606,-11.38322 5.00091,-18.84172 5.46411,-6.87598 15.97924,-13.26068 26.33451,-15.99006 8.84116,-2.33032 23.7345,-4.12085 34.58895,-4.15842 l 5.14959,-0.0178 -4.0577,-2.0603 c -4.21181,-2.1385 -9.21854,-5.3452 -13.76133,-8.81381 l -2.64,-2.01578 -25.41811,-3.2046 c -35.25405,-4.44468 -42.33242,-5.42992 -42.86962,-5.96714 -0.31545,-0.3154 -0.30491,-0.72319 0.0325,-1.25883 0.44969,-0.71395 2.69931,-0.86801 22.7581,-1.55838 12.2425,-0.42135 25.20867,-0.78358 28.81368,-0.80495 3.60499,-0.0215 6.55455,-0.22468 6.55455,-0.4518 0,-0.22712 -0.8607,-1.82965 -1.91264,-3.56118 -1.0519,-1.73151 -2.92122,-5.2227 -4.15393,-7.75821 l -2.24139,-4.60999 -8.61017,-0.82428 c -22.0538,-2.11129 -59.93291,-6.66919 -60.69734,-7.30357 -0.81963,-0.68025 -0.71821,-1.64245 0.22563,-2.14021 0.44271,-0.23348 13.22409,-0.59025 28.40308,-0.79287 15.17899,-0.20258 27.75339,-0.40694 27.94313,-0.45411 0.18974,-0.0472 2.08236,-0.11152 4.20587,-0.14325 l 3.86087,-0.0575 -1.05885,-3.33479 c -1.26265,-3.97676 -2.52319,-9.87969 -2.52319,-11.81605 0,-1.07073 -0.238,-1.4407 -1.03493,-1.60872 -0.56923,-0.11999 -7.76198,-0.96521 -15.98394,-1.87826 -28.8712,-3.20611 -31.83161,-3.61012 -32.33697,-4.41312 -0.25698,-0.40832 -0.34456,-1.06209 -0.19462,-1.45279 0.32349,-0.84302 2.00252,-0.99958 18.73251,-1.74664 19.22432,-0.85843 30.26252,-1.55545 30.64008,-1.9348 0.29976,-0.30121 1.07045,-13.61467 0.81325,-14.04959 -0.0479,-0.0811 -6.26492,-1.05871 -13.8154,-2.17232 -19.17992,-2.82883 -19.83114,-2.94846 -20.11776,-3.69526 -0.50131,-1.30651 0.2459,-1.93647 2.62518,-2.2132 1.31147,-0.15252 7.45566,-0.70206 13.65373,-1.2212 14.36503,-1.20315 20.3461,-1.77379 20.53108,-1.95879 0.0807,-0.0808 0.67413,-1.96607 1.31842,-4.18943 2.24646,-7.7519 7.76258,-18.79438 14.84096,-29.70917 17.60489,-27.1467 43.59526,-44.21766 74.70412,-49.06712 7.22005,-1.12551 22.07307,-1.12103 29.35597,0.008 14.41205,2.23592 26.63247,6.48371 37.81276,13.14364 7.62542,4.54233 12.47588,8.38124 19.56838,15.48737 3.60502,3.61193 6.55456,6.48335 6.55456,6.38096 0,-0.10239 1.99374,-10.07576 4.4305,-22.163 4.31729,-21.41523 4.43601,-22.17312 4.64564,-29.66004 0.25857,-9.23201 -0.4204,-13.47213 -3.04143,-18.99495 -4.97449,-10.48167 -14.42565,-15.45756 -31.9738,-16.83368 -6.87671,-0.53927 -12.16083,-0.32163 -25.69327,1.05827 -10.36223,1.05664 -11.11723,0.98233 -12.5717,-1.23749 -0.99289,-1.51531 -0.99412,-4.21887 -0.005,-6.13581 1.57802,-3.05163 17.0091,-13.51315 27.63936,-18.73815 10.71612,-5.26723 20.21473,-7.84927 30.58794,-8.31486 7.68963,-0.34516 10.50839,-0.0105 31.5079,3.73705 9.10738,1.62544 20.80084,3.70529 25.98553,4.62188 5.18464,0.91657 10.38376,2.07825 11.55359,2.58151 2.84436,1.2236 4.67794,3.21444 6.74145,7.31956 1.20793,2.40306 2.30022,3.85429 3.68744,4.89909 4.42591,3.33343 15.82905,5.39386 19.36953,3.49984 1.18289,-0.6328 1.77686,-1.42195 2.44754,-3.25195 1.01206,-2.76137 3.0672,-4.61313 5.57068,-5.01939 0.88893,-0.14424 3.13327,0.0626 4.98738,0.4599 1.85419,0.3972 6.47602,1.37888 10.27075,2.1815 7.3699,1.5588 8.6437,2.02388 10.17682,3.71574 1.68188,1.85596 2.1481,3.2432 2.13385,6.34943 -0.0171,3.68283 -9.38972,51.66845 -10.64764,54.51225 -1.56437,3.53644 -5.15579,6.20849 -8.36012,6.21994 -1.69564,0.007 -21.33608,-4.62567 -22.304,-5.25988 -0.5861,-0.38402 -1.63699,-1.44735 -2.33535,-2.36293 -1.07595,-1.41069 -1.27655,-2.13161 -1.31432,-4.72415 -0.0874,-6.00316 -3.21059,-8.99719 -10.92467,-10.47301 -5.44371,-1.04146 -10.62829,-0.71022 -13.28893,0.849 -4.09778,2.40145 -7.49553,6.99111 -8.44886,11.41261 -0.18875,0.87534 -0.63545,2.16345 -0.99266,2.86249 -0.66732,1.3058 -9.62847,48.9544 -11.02789,58.63797 -1.04317,7.21805 -1.04257,17.90697 0,23.2667 0.43499,2.23352 3.0433,10.82346 5.7963,19.08871 9.20181,27.62659 11.96044,40.26531 11.9643,54.81509 0.39476,69.93806 -52.75193,78.71322 -111.76677,78.87699 -73.99754,0.005 -138.69073,-0.0957 -143.76266,-0.22224 z M 500.7137,568.2818 c 21.86848,-4.95726 39.77799,-19.29725 50.26003,-40.24277 8.9952,-17.97434 11.83032,-40.57539 7.66097,-61.07165 -2.08807,-10.2649 -7.27663,-22.31336 -13.19615,-30.64314 -6.32251,-8.89685 -17.17299,-18.48692 -26.18002,-23.13885 -17.32165,-8.94628 -39.47205,-9.51768 -58.44863,-1.50776 -17.3964,7.34297 -30.78381,20.24084 -39.90762,38.44842 -3.4785,6.94175 -5.85199,13.54398 -7.16377,19.92716 -6.30678,30.68929 10.99497,60.68921 39.43991,68.38591 5.17796,1.40106 14.24391,1.72133 19.70713,0.6962 5.38914,-1.01121 12.4762,-3.81142 16.72261,-6.60734 6.82749,-4.49537 12.9663,-11.6534 16.43773,-19.16681 2.53268,-5.4817 3.44158,-9.71106 3.46026,-16.10181 0.0138,-4.67622 -0.16306,-6.0819 -1.15661,-9.19939 -3.63595,-11.40869 -13.05554,-19.38982 -23.97376,-20.31275 -10.41484,-0.88037 -19.67496,6.64501 -19.67496,15.98922 0,5.91362 3.56689,10.53312 8.13299,10.53312 3.08925,0 4.88143,-1.42855 4.88143,-3.89103 0,-3.69839 5.62909,-1.78361 7.77241,2.64385 1.41888,2.93098 1.34292,7.67468 -0.17128,10.70123 -2.0035,4.0045 -6.45263,7.90565 -11.34349,9.94629 -2.06977,0.86354 -3.31937,1.02918 -7.75687,1.02806 -6.14712,-0.003 -8.7228,-0.77703 -13.89741,-4.1844 -16.26562,-10.71057 -18.77741,-35.37569 -5.63629,-55.34696 3.1473,-4.7831 8.85018,-10.59751 13.23326,-13.49204 12.42825,-8.20747 29.22084,-10.80779 41.44434,-6.41766 8.07691,2.90089 14.74868,7.17617 20.97877,13.4433 9.38263,9.43833 14.8984,20.56483 18.02973,36.36998 0.88166,4.45007 1.04688,6.74978 1.04095,14.48904 -0.008,8.36196 -0.11897,9.67031 -1.23712,14.3728 -3.73157,15.69345 -13.82153,31.74688 -26.24179,41.75135 -6.41174,5.16467 -15.76209,10.40317 -23.45107,13.1384 -1.70763,0.60747 -3.1048,1.22959 -3.1048,1.38253 0,0.41325 8.33373,-0.78784 13.33912,-1.9225 z"
       id="path4"
       sodipodi:nodetypes="csssscsscsscssssscsssssscssssssssssssssssssssssssssscsssssssssssssssssssssssscsccccssssssssssssssssssssscssssssssssss" />
  </g>
</svg>
