<?xml version="1.0" encoding="UTF-8" standalone="no"?>
<!-- Created with Inkscape (http://www.inkscape.org/) -->

<svg
   version="1.1"
   id="svg1"
   width="1400"
   height="450"
   viewBox="0 0 1399.9999 450"
   sodipodi:docname="shell-smith-fas-textt.svg"
   inkscape:version="1.4 (86a8ad7, 2024-10-11)"
   xmlns:inkscape="http://www.inkscape.org/namespaces/inkscape"
   xmlns:sodipodi="http://sodipodi.sourceforge.net/DTD/sodipodi-0.dtd"
   xmlns="http://www.w3.org/2000/svg"
   xmlns:svg="http://www.w3.org/2000/svg">
  <defs
     id="defs1">
    <rect
       x="908.60931"
       y="221.06372"
       width="1350.7368"
       height="339.08926"
       id="rect4" />
  </defs>
  <sodipodi:namedview
     id="namedview1"
     pagecolor="#ffffff"
     bordercolor="#000000"
     borderopacity="0.25"
     inkscape:showpageshadow="2"
     inkscape:pageopacity="0.0"
     inkscape:pagecheckerboard="0"
     inkscape:deskcolor="#d1d1d1"
     inkscape:zoom="0.75488281"
     inkscape:cx="661.02975"
     inkscape:cy="253.68176"
     inkscape:window-width="1920"
     inkscape:window-height="991"
     inkscape:window-x="2391"
     inkscape:window-y="-9"
     inkscape:window-maximized="1"
     inkscape:current-layer="g1" />
  <g
     inkscape:groupmode="layer"
     inkscape:label="Image"
     id="g1"
     transform="translate(-64.573966,-138.63762)">
    <path
       style="fill:#28170b;stroke-width:0.548302"
       d="m 208.01292,550.33176 c -12.12054,-0.30229 -12.95572,-0.52336 -15.06213,-3.98712 -3.27577,-5.38652 -1.10389,-13.56924 5.9613,-22.46008 6.51345,-8.19647 19.0479,-15.80728 31.39182,-19.06083 10.53901,-2.77782 28.29248,-4.9122 41.23141,-4.95698 l 6.13851,-0.0212 -4.83695,-2.45595 c -5.02063,-2.5492 -10.98884,-6.3717 -16.40404,-10.50643 l -3.14698,-2.40289 -30.29943,-3.82001 c -42.02426,-5.29823 -50.46196,-6.47269 -51.10232,-7.11307 -0.37603,-0.37598 -0.36347,-0.86208 0.0389,-1.50057 0.53607,-0.85108 3.21771,-1.03471 27.1286,-1.85766 14.59354,-0.50227 30.04973,-0.93406 34.34705,-0.95953 4.29731,-0.0254 7.8133,-0.26782 7.8133,-0.53857 0,-0.27074 -1.02599,-2.18102 -2.27995,-4.24506 -1.25391,-2.06404 -3.48221,-6.22569 -4.95166,-9.24811 l -2.67182,-5.49531 -10.26366,-0.98257 c -26.28904,-2.51673 -71.44246,-7.94992 -72.35368,-8.70613 -0.97704,-0.81089 -0.85614,-1.95788 0.26894,-2.55122 0.52774,-0.27832 15.76367,-0.70363 33.85763,-0.94513 18.09396,-0.2415 33.08316,-0.4851 33.30934,-0.54133 0.22617,-0.0562 2.48227,-0.13307 5.01356,-0.17076 l 4.60233,-0.0685 -1.26219,-3.97519 c -1.50514,-4.74047 -3.00776,-11.77701 -3.00776,-14.08521 0,-1.27637 -0.28369,-1.71738 -1.23368,-1.91766 -0.67853,-0.14304 -9.25259,-1.15058 -19.05349,-2.23896 -34.41564,-3.82183 -37.94457,-4.30344 -38.54698,-5.26062 -0.30634,-0.48675 -0.41074,-1.26605 -0.23199,-1.73178 0.38562,-1.00493 2.38709,-1.19155 22.32992,-2.08207 22.91616,-1.0233 36.07414,-1.85418 36.52419,-2.30637 0.35733,-0.35906 1.27601,-16.22924 0.96945,-16.74767 -0.0572,-0.0967 -7.46803,-1.26203 -16.46852,-2.5895 -22.86325,-3.37209 -23.63953,-3.51469 -23.98118,-4.4049 -0.59759,-1.55741 0.29312,-2.30837 3.12932,-2.63822 1.56332,-0.18182 8.88743,-0.83689 16.27579,-1.45572 17.12369,-1.43421 24.25336,-2.11443 24.47389,-2.33497 0.0963,-0.0963 0.80359,-2.34363 1.5716,-4.99396 2.67785,-9.24057 9.2533,-22.40366 17.69101,-35.41454 20.98576,-32.35996 51.96733,-52.70924 89.05035,-58.49 8.60658,-1.34165 26.31201,-1.33631 34.99349,0.0105 17.17978,2.6653 31.747,7.72884 45.07436,15.66774 9.0898,5.41465 14.87175,9.99078 23.32629,18.46157 4.29731,4.30558 7.8133,7.72844 7.8133,7.60637 0,-0.12207 2.37661,-12.0107 5.28135,-26.41918 5.14636,-25.52783 5.28788,-26.43126 5.53779,-35.35597 0.30821,-11.00494 -0.50114,-16.05932 -3.62553,-22.64276 -5.92978,-12.49457 -17.19595,-18.42604 -38.11405,-20.06643 -8.19733,-0.64283 -14.49622,-0.38338 -30.62742,1.26151 -12.3522,1.25956 -13.25218,1.17097 -14.98597,-1.47515 -1.18356,-1.80632 -1.18504,-5.02905 -0.005,-7.31412 1.88106,-3.63766 20.27554,-16.10822 32.94724,-22.33664 12.77406,-6.27875 24.09676,-9.35664 36.46206,-9.91166 9.16635,-0.41143 12.5264,-0.0129 37.55867,4.45473 10.85638,1.9376 24.79547,4.41685 30.97582,5.50945 6.18029,1.0926 12.37786,2.47737 13.77235,3.07728 3.39059,1.45858 5.57629,3.83173 8.03608,8.72523 1.43989,2.86453 2.74195,4.59445 4.39557,5.8399 5.27587,3.97358 18.86887,6.42968 23.08926,4.17195 1.41007,-0.75434 2.11809,-1.69503 2.91757,-3.87648 1.20643,-3.29164 3.65624,-5.49902 6.64048,-5.98329 1.05965,-0.17196 3.73498,0.0747 5.94518,0.54821 2.21026,0.47348 7.71965,1.64367 12.24314,2.60043 8.78522,1.85816 10.30363,2.41256 12.13118,4.42931 2.00486,2.2124 2.56062,3.86603 2.54363,7.56879 -0.0203,4.39008 -11.19293,61.59089 -12.69242,64.9808 -1.86478,4.21559 -6.14592,7.40078 -9.96561,7.41443 -2.02126,0.007 -25.43347,-5.51399 -26.58726,-6.26999 -0.69864,-0.45777 -1.95135,-1.72529 -2.78384,-2.81672 -1.28258,-1.68157 -1.5217,-2.54094 -1.56671,-5.63137 -0.10424,-7.156 -3.82715,-10.72501 -13.02266,-12.48425 -6.4891,-1.24147 -12.66934,-0.84662 -15.84094,1.01205 -4.88471,2.86263 -8.93496,8.33368 -10.07137,13.60426 -0.22502,1.04346 -0.75748,2.57895 -1.18329,3.41221 -0.79547,1.55659 -11.47754,58.35565 -13.1457,69.89884 -1.24349,8.60422 -1.24278,21.34584 0,27.73487 0.51853,2.66245 3.62773,12.90199 6.90943,22.75452 10.96894,32.93201 14.25732,47.99786 14.26193,65.34181 0.47055,83.369 -62.88243,93.82933 -133.23053,94.02455 -88.20805,0.005 -165.32494,-0.11415 -171.3709,-0.26493 z M 365.67627,504.7717 c 26.06813,-5.90926 47.41697,-23.0031 59.912,-47.971 10.72264,-21.42615 14.10221,-48.3675 9.13219,-72.79988 -2.48907,-12.23619 -8.67403,-26.59843 -15.73034,-36.52788 -7.53669,-10.60539 -20.4709,-22.03714 -31.20764,-27.58244 -20.64811,-10.66433 -47.0523,-11.34546 -69.67314,-1.7973 -20.73722,8.75312 -36.69554,24.1279 -47.57149,45.83206 -4.14653,8.27486 -6.97582,16.14498 -8.53952,23.75401 -7.51793,36.58284 13.10644,72.34398 47.01397,81.51876 6.17234,1.67011 16.97931,2.05189 23.49171,0.82989 6.42407,-1.20541 14.87214,-4.54336 19.93401,-7.87621 8.13866,-5.35868 15.45635,-13.89135 19.59444,-22.84761 3.01906,-6.53442 4.1025,-11.57599 4.12476,-19.19401 0.0165,-5.57425 -0.19437,-7.24987 -1.3787,-10.96604 -4.33422,-13.59964 -15.56273,-23.11346 -28.57771,-24.21363 -12.41492,-1.04945 -23.45334,7.92111 -23.45334,19.0598 0,7.04929 4.25187,12.55591 9.69486,12.55591 3.6825,0 5.81885,-1.7029 5.81885,-4.63828 0,-4.40864 6.71012,-2.12613 9.26504,3.15158 1.69135,3.49386 1.60082,9.14852 -0.20419,12.7563 -2.38824,4.77352 -7.6918,9.42384 -13.52189,11.85636 -2.46725,1.0294 -3.95682,1.22683 -9.2465,1.22552 -7.32762,-0.002 -10.39794,-0.92626 -16.56628,-4.98798 -19.38927,-12.76743 -22.38344,-42.16927 -6.71868,-65.97581 3.7517,-5.70166 10.54977,-12.63268 15.77459,-16.08308 14.81495,-9.78363 34.83241,-12.88332 49.40331,-7.6501 9.62801,3.45798 17.58102,8.55428 25.00755,16.02495 11.18448,11.25088 17.75949,24.5141 21.49217,43.3545 1.05098,5.30467 1.24793,8.04599 1.24086,17.27151 -0.008,9.96781 -0.14185,11.5274 -1.47471,17.13297 -4.44816,18.70723 -16.47581,37.84355 -31.28128,49.76932 -7.64305,6.15648 -18.78904,12.40097 -27.95462,15.66148 -2.03557,0.72413 -3.70103,1.46574 -3.70103,1.64803 0,0.49261 9.93413,-0.93915 15.90075,-2.2917 z"
       id="path4"
       sodipodi:nodetypes="csssscsscsscssssscsssssscssssssssssssssssssssssssssscsssssssssssssssssssssssscsccccssssssssssssssssssssscssssssssssss" />
    <text
       xml:space="preserve"
       transform="matrix(0.97824825,0,0,0.97824825,-319.65255,39.413842)"
       id="text4"
       style="font-size:192px;text-align:start;writing-mode:lr-tb;direction:ltr;white-space:pre;shape-inside:url(#rect4);display:inline;fill:#28170b"><tspan
         x="908.60938"
         y="397.55453"
         id="tspan2"><tspan
           style="font-family:'Bauhaus 93';-inkscape-font-specification:'Bauhaus 93, Normal'"
           id="tspan1">shellsmith</tspan></tspan></text>
  </g>
</svg>
